<svg version="1.2" xmlns="http://www.w3.org/2000/svg" viewBox="0 0 620 576" width="620" height="576">
	<title>destiny_logo_tricorn_vector_by_valencygraphics_d5yqbim-svg</title>
	<style>
		.s0 { fill: #000000 } 
	</style>
	<g id="g10">
		<g id="g12">
			<path id="path14" class="s0" d="m211.1 48.6c0.5 44.9 0 88.1 0 137c0 14.6-0.7 29.1 0 42.7c3.5 65.8 65.5 113.9 132.3 89.6c32.3-11.7 58.8-39.9 63.7-78.7c3.1-24.5 0.6-61.6 0.6-94.4c0-22 0-46.8 0-71.6c0-6.8-0.7-18.9 0-23.4c0 0 17.9-9.9 21.7-12.1c21.7-12.7 39.2-26.9 65.5-34.2c43.2-12.1 77.4 9.9 96.8 30c21.4 22.2 35.6 60.8 22.3 100.4c-11.3 33.4-38.6 48.7-65.6 67.4c-52.2 36.1-92.3 84.8-117.2 149.1c-12 30.9-19 71.6-22.9 108.8c-2.3 22-3.4 40.3-10.2 56.6c-12.3 29.4-37.3 53.6-74.6 58.3c-63.3 7.9-101.8-32.9-110-87.2c-3.1-20.5-3.9-40.9-6.6-60.1c-13.4-95.2-58.4-164.5-120.3-212.9c-37.2-29.1-88.1-48.6-86.6-113c0.5-20.2 7-38 15.1-51.1c15.9-26.1 43.6-49.1 85.3-49.4c49.4-0.3 73.3 29.9 110.7 48.2z" />
			<path id="path16" class="s0" d="m306.7 51c32.5-2.1 60.4 21.2 66.7 50.5c3.7 16.6 1.2 48.5 1.2 66.1c0 21 1.8 47.3-0.6 66.8c-2.6 21.6-14.5 37.5-27.6 46.3c-40.1 26.6-97.2 2.8-102.2-48.8c-2.4-23.9 0-47.1 0-70.9c0-23.2-2.3-50.9 3.6-67.4c7.6-21.6 28.9-40.7 58.9-42.6z" />
		</g>
	</g>
</svg>